<?xml version="1.0" standalone="no"?>
<!DOCTYPE svg PUBLIC "-//W3C//DTD SVG 20010904//EN"
 "http://www.w3.org/TR/2001/REC-SVG-20010904/DTD/svg10.dtd">
<svg version="1.0" xmlns="http://www.w3.org/2000/svg"
 width="322.000000pt" height="322.000000pt" viewBox="0 0 322.000000 322.000000"
 preserveAspectRatio="xMidYMid meet">
<metadata>
Created by potrace 1.14, written by Peter Selinger 2001-2017
</metadata>
<g transform="translate(0.000000,322.000000) scale(0.100000,-0.100000)"
fill="#000000" stroke="none">
<path d="M2100 3145 c-7 -8 -16 -12 -21 -9 -5 3 -9 0 -9 -6 0 -6 -4 -9 -9 -6
-5 4 -11 2 -13 -2 -1 -4 -35 -23 -75 -42 -40 -18 -70 -37 -67 -41 3 -5 -2 -6
-10 -3 -9 3 -16 1 -16 -5 0 -6 -3 -10 -7 -9 -14 3 -63 -25 -63 -35 0 -6 -3 -8
-6 -4 -4 3 -50 -17 -103 -45 -53 -28 -144 -75 -203 -106 -59 -31 -104 -60
-101 -65 3 -6 1 -7 -4 -4 -14 9 -136 -51 -128 -62 3 -5 -4 -7 -15 -4 -15 4
-20 0 -21 -13 0 -11 -3 -14 -5 -8 -3 7 -53 -14 -130 -55 -93 -49 -123 -69
-119 -81 5 -12 4 -12 -6 -3 -10 10 -27 5 -83 -25 -39 -20 -73 -39 -76 -42 -3
-3 -38 -21 -78 -40 -40 -19 -78 -41 -85 -48 -15 -19 -68 -203 -61 -214 3 -4 1
-8 -4 -8 -5 0 -9 -6 -9 -12 0 -7 -10 -46 -22 -87 -13 -41 -24 -83 -27 -94 -2
-11 -8 -35 -14 -53 -6 -19 -8 -39 -4 -45 4 -8 3 -9 -4 -5 -12 7 -14 -1 -16
-66 0 -14 -4 -24 -7 -22 -7 4 -40 -105 -42 -138 -1 -10 -4 -18 -7 -18 -4 0 -7
-6 -8 -12 -2 -24 -30 -126 -37 -139 -6 -8 -4 -10 6 -4 12 8 12 6 0 -8 -7 -9
-21 -47 -32 -84 -10 -38 -32 -117 -48 -178 -17 -60 -29 -116 -26 -123 3 -7 1
-11 -3 -8 -7 4 -15 -22 -48 -149 -2 -5 -11 -37 -20 -70 -9 -33 -18 -67 -19
-75 -1 -8 -5 -22 -8 -30 -18 -47 -96 -344 -92 -350 3 -5 0 -12 -6 -15 -5 -4
-8 -13 -5 -20 3 -8 1 -15 -4 -17 -5 -2 -11 -14 -14 -28 -3 -14 -9 -40 -15 -59
-6 -19 -8 -37 -6 -42 3 -4 0 -9 -6 -11 -6 -2 -11 -22 -12 -45 -1 -22 -5 -39
-8 -37 -10 6 -18 -33 -12 -56 3 -11 7 -20 10 -20 9 0 68 33 74 42 3 5 9 9 13
9 20 -3 26 0 20 11 -4 7 -3 8 5 4 6 -4 33 5 59 21 26 16 62 35 79 42 18 7 30
17 27 22 -3 5 1 7 8 4 7 -3 37 10 66 30 29 19 50 29 45 22 -5 -8 -2 -8 9 1 14
11 186 102 193 102 4 0 -32 -136 -50 -191 -22 -64 -26 -107 -11 -112 6 -3 52
17 101 43 50 26 124 65 165 86 41 20 77 41 78 46 2 4 8 6 13 2 5 -3 9 0 9 6 0
6 4 9 9 5 5 -3 13 -1 16 5 4 6 24 18 45 26 28 12 37 20 33 32 -4 14 -3 14 5 3
8 -11 18 -9 56 12 25 14 46 21 46 16 0 -6 -15 -64 -34 -129 -29 -101 -36 -160
-20 -160 9 0 150 74 175 91 14 10 29 16 33 12 3 -3 6 -1 6 5 0 7 7 12 15 12 8
0 15 8 16 18 0 10 3 12 6 5 3 -9 35 3 101 39 53 28 124 65 157 82 33 17 62 33
65 36 3 3 50 27 105 55 55 27 102 52 105 55 3 4 38 22 78 40 39 19 72 38 72
43 0 4 4 6 9 2 5 -3 17 2 25 11 9 8 16 12 16 7 0 -4 4 -3 8 2 4 6 44 28 89 50
45 22 79 44 76 49 -3 5 -1 6 5 2 11 -7 124 51 130 66 2 5 7 6 12 3 5 -3 15 2
24 10 8 9 19 16 23 17 16 1 58 19 63 27 3 4 26 17 51 29 45 20 69 57 54 82 -3
4 0 10 7 12 6 2 12 20 12 40 1 20 4 34 7 32 5 -3 29 76 53 177 3 9 9 33 14 53
6 20 8 36 5 36 -3 0 0 7 7 15 7 8 10 22 6 30 -3 9 -2 14 3 11 5 -3 12 11 17
32 4 20 8 42 10 47 2 6 6 21 10 35 4 14 7 37 8 52 0 14 4 24 7 22 9 -5 60 196
53 208 -4 6 -3 8 2 5 6 -3 16 19 23 50 7 30 21 82 32 115 10 32 18 62 18 66
-1 4 0 10 1 15 1 4 3 10 4 15 1 4 12 40 24 80 13 40 20 77 17 82 -3 6 -2 10 3
10 7 0 32 83 38 125 0 6 4 17 7 25 7 16 75 255 82 286 2 10 16 61 30 112 14
51 23 98 19 104 -4 6 -3 8 3 5 7 -5 45 113 57 183 2 8 6 22 9 30 16 39 38 132
35 142 -8 24 -43 14 -150 -43 -62 -32 -116 -59 -120 -59 -4 0 -8 -5 -8 -11 0
-5 -4 -7 -10 -4 -5 3 -10 1 -10 -5 0 -6 -4 -8 -10 -5 -5 3 -10 1 -10 -4 0 -6
-3 -10 -7 -9 -5 2 -51 -21 -104 -50 -53 -28 -102 -52 -108 -52 -6 0 -11 -4
-11 -9 0 -9 -30 -24 -36 -18 -2 1 8 42 21 90 13 48 21 87 18 87 -3 0 0 6 6 13
6 8 13 30 16 50 5 28 2 39 -9 43 -17 7 -76 -16 -76 -29 0 -5 -4 -6 -9 -2 -6 3
-14 -2 -19 -11 -5 -9 -12 -15 -16 -14 -4 2 -38 -13 -77 -31 -46 -23 -67 -39
-64 -48 5 -11 3 -12 -10 -1 -11 9 -15 9 -15 1 0 -7 -4 -10 -9 -6 -6 3 -14 -3
-20 -12 -6 -10 -11 -15 -11 -10 0 4 -41 -14 -91 -40 -120 -62 -130 -69 -123
-75 3 -3 -3 -5 -13 -4 -10 0 -17 -4 -16 -11 2 -7 -3 -10 -10 -7 -8 3 -13 21
-12 43 0 22 3 37 7 35 7 -5 29 77 32 118 0 14 4 24 7 22 9 -5 20 53 13 71 -8
19 -38 19 -54 0z m475 -205 c3 -6 -1 -7 -9 -4 -18 7 -21 14 -7 14 6 0 13 -4
16 -10z m-565 -40 c0 -5 -5 -10 -11 -10 -5 0 -7 5 -4 10 3 6 8 10 11 10 2 0 4
-4 4 -10z m1040 0 c0 -5 -2 -10 -4 -10 -3 0 -8 5 -11 10 -3 6 -1 10 4 10 6 0
11 -4 11 -10z m-1366 -78 c3 -5 -1 -9 -9 -9 -8 0 -12 4 -9 9 3 4 7 8 9 8 2 0
6 -4 9 -8z m-157 -87 c0 -8 -4 -12 -9 -9 -5 3 -6 10 -3 15 9 13 12 11 12 -6z
m1203 -71 c0 -8 -19 -13 -24 -6 -3 5 1 9 9 9 8 0 15 -2 15 -3z m-1596 -42 c3
-5 -1 -9 -9 -9 -8 0 -12 4 -9 9 3 4 7 8 9 8 2 0 6 -4 9 -8z m1830 -120 c3 -5
-1 -9 -9 -9 -8 0 -12 4 -9 9 3 4 7 8 9 8 2 0 6 -4 9 -8z m-119 -71 c3 -5 2
-12 -3 -15 -5 -3 -9 1 -9 9 0 17 3 19 12 6z m126 -48 c13 -16 12 -17 -3 -4
-17 13 -22 21 -14 21 2 0 10 -8 17 -17z m-2081 -39 c0 -8 -19 -13 -24 -6 -3 5
1 9 9 9 8 0 15 -2 15 -3z m1917 -159 c0 -8 -4 -12 -9 -9 -5 3 -6 10 -3 15 9
13 12 11 12 -6z m-1913 -3 c3 -5 -1 -9 -9 -9 -8 0 -12 4 -9 9 3 4 7 8 9 8 2 0
6 -4 9 -8z m190 -40 c3 -5 -1 -9 -9 -9 -8 0 -12 4 -9 9 3 4 7 8 9 8 2 0 6 -4
9 -8z m-354 -86 c-7 -7 -13 -7 -20 0 -6 6 -3 10 10 10 13 0 16 -4 10 -10z m-3
-201 c0 -8 -4 -12 -9 -9 -5 3 -6 10 -3 15 9 13 12 11 12 -6z m248 -35 c3 -6
-1 -7 -9 -4 -18 7 -21 14 -7 14 6 0 13 -4 16 -10z m1711 -120 c0 -12 -4 -16
-9 -11 -5 5 -6 14 -3 20 10 15 12 14 12 -9z m0 -160 c0 -12 -4 -16 -9 -11 -5
5 -6 14 -3 20 10 15 12 14 12 -9z m-399 -75 c0 -8 -4 -12 -9 -9 -5 3 -6 10 -3
15 9 13 12 11 12 -6z m157 -95 c-6 -6 -10 -3 -10 10 0 13 4 16 10 10 7 -7 7
-13 0 -20z m-2000 4 c3 -8 2 -12 -4 -9 -6 3 -10 10 -10 16 0 14 7 11 14 -7z
m281 7 c3 -5 2 -12 -3 -15 -5 -3 -9 1 -9 9 0 17 3 19 12 6z m-358 -236 c0 -8
-4 -12 -9 -9 -5 3 -6 10 -3 15 9 13 12 11 12 -6z m2203 -29 c0 -2 -8 -10 -17
-17 -16 -13 -17 -12 -4 4 13 16 21 21 21 13z m-2046 -66 c-6 -6 -10 -3 -10 10
0 13 4 16 10 10 7 -7 7 -13 0 -20z m210 12 c3 -5 -1 -9 -9 -9 -8 0 -12 4 -9 9
3 4 7 8 9 8 2 0 6 -4 9 -8z m1750 0 c3 -5 -1 -9 -9 -9 -8 0 -12 4 -9 9 3 4 7
8 9 8 2 0 6 -4 9 -8z m-154 -126 c-7 -7 -13 -7 -20 0 -6 6 -3 10 10 10 13 0
16 -4 10 -10z m-1925 -25 c3 -5 2 -12 -3 -15 -5 -3 -9 1 -9 9 0 17 3 19 12 6z
m1609 -289 c3 -5 -1 -9 -9 -9 -8 0 -12 4 -9 9 3 4 7 8 9 8 2 0 6 -4 9 -8z
m-843 -39 c13 -16 12 -17 -3 -4 -10 7 -18 15 -18 17 0 8 8 3 21 -13z m-85 -89
c1 -9 0 -13 -4 -10 -3 4 -7 14 -8 22 -1 9 0 13 4 10 3 -4 7 -14 8 -22z"/>
</g>
</svg>
