<?xml version="1.0" standalone="no"?>
<!DOCTYPE svg PUBLIC "-//W3C//DTD SVG 20010904//EN"
 "http://www.w3.org/TR/2001/REC-SVG-20010904/DTD/svg10.dtd">
<svg version="1.0" xmlns="http://www.w3.org/2000/svg"
 width="3280.000000pt" height="3280.000000pt" viewBox="0 0 3280.000000 3280.000000"
 preserveAspectRatio="xMidYMid meet">
<metadata>
Created by potrace 1.14, written by Peter Selinger 2001-2017
</metadata>
<g transform="translate(0.000000,3280.000000) scale(0.100000,-0.100000)"
fill="#000000" stroke="none">
<path d="M17228 30194 c-2 -1 -82 -5 -178 -8 -176 -7 -213 -9 -395 -21 -55 -4
-120 -8 -145 -10 -44 -3 -133 -11 -228 -20 -26 -2 -74 -7 -107 -10 -33 -3 -76
-8 -95 -10 -85 -9 -147 -17 -170 -20 -14 -2 -50 -7 -80 -10 -30 -3 -67 -8 -81
-10 -14 -3 -43 -7 -64 -10 -43 -5 -109 -14 -145 -20 -247 -39 -268 -42 -365
-61 -44 -8 -96 -17 -115 -20 -19 -3 -78 -14 -130 -25 -52 -11 -106 -22 -120
-24 -42 -8 -64 -13 -161 -34 -90 -20 -258 -58 -289 -66 -182 -44 -488 -125
-570 -150 -25 -8 -121 -37 -215 -65 -269 -81 -732 -239 -850 -289 -11 -5 -65
-25 -120 -46 -55 -21 -113 -43 -130 -51 -16 -7 -111 -46 -210 -87 -425 -177
-888 -401 -1335 -645 -36 -20 -141 -80 -235 -135 -93 -55 -184 -107 -202 -117
-140 -81 -616 -389 -621 -402 -2 -4 -7 -8 -12 -8 -8 0 -324 -219 -399 -277 -9
-7 -83 -62 -164 -123 -82 -62 -156 -118 -165 -125 -10 -8 -98 -79 -197 -158
-148 -119 -476 -394 -495 -416 -3 -3 -30 -28 -60 -55 -172 -155 -321 -297
-535 -511 -247 -248 -290 -293 -460 -480 -55 -60 -102 -112 -105 -115 -3 -3
-59 -68 -125 -145 -66 -77 -122 -142 -126 -145 -9 -9 -263 -323 -293 -365 -17
-22 -33 -42 -37 -45 -7 -6 -305 -406 -372 -500 -238 -337 -545 -820 -735
-1160 -14 -25 -34 -61 -45 -80 -162 -286 -416 -793 -544 -1085 -20 -44 -43
-98 -53 -120 -103 -231 -342 -835 -366 -925 -2 -8 -33 -100 -68 -205 -144
-423 -277 -898 -376 -1345 -59 -266 -60 -272 -65 -300 -3 -14 -7 -36 -10 -50
-2 -14 -7 -38 -10 -55 -3 -16 -15 -79 -26 -140 -21 -113 -53 -303 -63 -365
-28 -189 -38 -262 -42 -300 -2 -25 -6 -52 -9 -60 -2 -8 -7 -44 -10 -80 -4 -36
-8 -76 -10 -90 -2 -14 -6 -52 -10 -85 -3 -33 -8 -78 -10 -100 -9 -87 -15 -153
-21 -220 -3 -38 -7 -92 -9 -120 -3 -27 -7 -93 -10 -145 -3 -52 -8 -122 -10
-155 -25 -348 -25 -1150 0 -1555 9 -151 16 -252 20 -293 2 -23 6 -78 10 -122
3 -44 8 -93 10 -110 3 -16 7 -61 10 -100 3 -38 7 -81 9 -95 3 -14 7 -55 11
-92 3 -37 8 -77 10 -90 4 -28 13 -97 20 -163 3 -27 8 -57 10 -65 2 -8 7 -39
10 -69 4 -30 9 -63 11 -75 2 -11 6 -38 9 -61 3 -22 8 -51 10 -65 3 -14 7 -38
9 -55 3 -16 8 -45 11 -62 3 -18 7 -48 10 -65 3 -18 7 -44 10 -58 3 -14 7 -41
10 -60 3 -19 8 -42 10 -50 2 -8 7 -31 10 -50 3 -19 10 -57 15 -85 6 -27 12
-59 14 -70 5 -23 76 -351 82 -377 2 -10 6 -26 8 -35 2 -10 14 -56 26 -103 12
-47 23 -92 25 -100 11 -53 107 -414 130 -490 8 -25 28 -92 45 -150 112 -375
348 -1039 455 -1275 7 -16 36 -84 63 -150 28 -66 65 -151 82 -190 18 -38 46
-99 62 -135 138 -304 328 -680 478 -945 31 -55 59 -107 63 -115 4 -8 13 -24
20 -35 7 -11 34 -58 61 -105 172 -298 614 -981 703 -1085 5 -5 19 -26 33 -45
73 -105 407 -543 455 -596 5 -7 26 -31 45 -55 51 -63 184 -223 190 -229 3 -3
36 -41 74 -85 190 -221 416 -462 675 -722 149 -149 406 -395 475 -454 22 -19
51 -45 66 -59 55 -53 336 -296 440 -380 30 -25 57 -47 60 -50 10 -12 330 -260
445 -346 230 -172 676 -484 692 -484 4 0 16 -8 27 -18 50 -45 612 -385 861
-522 33 -18 83 -45 110 -60 162 -89 536 -279 685 -348 36 -16 97 -45 135 -63
39 -18 72 -33 75 -34 3 -1 21 -8 40 -17 78 -35 341 -147 425 -182 50 -20 99
-41 110 -46 294 -128 1210 -430 1564 -516 9 -2 34 -8 56 -14 67 -18 520 -127
558 -134 12 -2 67 -13 122 -25 112 -23 126 -26 245 -47 46 -9 87 -17 90 -19 3
-2 29 -6 59 -10 30 -4 63 -9 75 -11 24 -5 70 -13 106 -19 82 -13 170 -27 200
-31 19 -2 46 -6 60 -9 14 -2 44 -7 68 -10 63 -8 124 -16 152 -20 14 -2 54 -7
90 -10 36 -4 72 -8 80 -10 8 -2 50 -6 93 -10 43 -3 86 -8 95 -10 9 -1 55 -6
102 -10 47 -3 96 -8 110 -10 31 -5 240 -19 445 -30 494 -26 1210 -22 1640 10
33 3 98 7 145 10 47 3 103 7 125 10 22 2 72 7 110 10 39 3 86 8 105 10 19 3
60 7 90 10 53 6 263 30 345 40 72 9 147 20 203 30 15 2 45 7 67 9 22 3 49 7
60 10 21 4 106 17 140 21 19 3 223 39 275 50 36 7 332 66 350 70 8 2 38 9 65
15 28 6 61 14 75 16 14 3 33 7 42 10 9 3 26 7 38 9 106 20 716 184 824 220 26
9 56 18 65 20 20 4 250 77 346 110 627 213 1118 414 1645 673 107 52 197 96
200 97 3 0 21 9 40 19 164 86 274 145 325 173 33 19 76 41 95 51 19 9 37 20
38 25 2 4 8 7 12 7 5 0 31 13 58 29 26 15 70 41 98 56 27 15 124 73 217 129
92 55 175 106 185 111 225 132 957 641 1151 801 15 13 197 157 275 219 21 17
48 38 60 49 11 10 41 35 66 55 25 20 47 38 50 41 3 3 34 30 70 60 36 30 70 60
76 65 6 6 42 37 79 70 261 229 652 604 871 838 99 106 347 378 389 428 11 13
81 96 156 184 239 283 449 551 514 656 171 278 286 597 330 912 3 20 7 52 10
71 24 169 24 574 0 698 -3 12 -7 41 -10 63 -17 133 -31 206 -61 330 -14 55
-27 110 -30 123 -24 119 -197 557 -266 675 -15 26 -28 50 -28 52 0 22 -194
321 -274 425 -70 90 -75 96 -125 154 -25 28 -1101 1108 -2392 2400 l-2347
2349 2316 2317 c2352 2353 2396 2397 2467 2485 22 28 46 56 53 63 69 74 257
373 349 557 103 207 230 548 268 724 26 120 55 268 59 307 4 27 8 60 11 73 27
139 27 633 1 791 -3 14 -7 43 -10 65 -43 298 -175 644 -339 891 -60 91 -109
156 -274 364 -26 33 -268 326 -278 336 -5 6 -35 39 -65 75 -56 64 -131 150
-140 159 -3 3 -25 28 -49 55 -259 294 -712 744 -1041 1035 -40 36 -82 73 -94
84 -12 10 -59 51 -106 90 -47 39 -87 74 -90 77 -5 6 -164 138 -236 195 -21 17
-65 53 -97 79 -125 100 -507 385 -627 466 -36 24 -67 47 -70 50 -3 3 -113 77
-245 164 -298 197 -308 203 -453 290 -661 398 -1219 679 -1957 986 -44 19 -82
34 -85 35 -3 0 -18 6 -35 13 -95 40 -500 189 -680 249 -274 92 -457 148 -830
251 -126 35 -608 151 -692 167 -13 2 -33 6 -45 8 -13 2 -81 16 -153 31 -71 15
-152 31 -180 35 -27 5 -102 18 -165 29 -63 11 -146 25 -185 31 -38 5 -81 12
-95 14 -14 2 -47 7 -73 11 -27 4 -56 8 -65 10 -10 1 -42 6 -73 9 -31 4 -65 8
-75 10 -11 2 -48 7 -84 11 -36 4 -78 9 -95 11 -30 4 -91 10 -175 19 -25 2 -67
7 -95 10 -27 2 -77 7 -110 10 -33 2 -94 7 -135 10 -76 7 -125 10 -305 20 -55
3 -138 8 -185 11 -83 5 -957 13 -962 8z m962 -2378 c36 -3 110 -8 165 -11 55
-4 118 -8 140 -10 22 -2 74 -6 115 -10 74 -6 95 -8 215 -20 77 -8 123 -13 295
-36 47 -6 96 -12 110 -14 14 -1 39 -5 55 -8 17 -4 50 -9 75 -12 25 -3 68 -10
95 -15 28 -5 66 -12 85 -14 47 -8 77 -13 195 -36 55 -10 111 -21 125 -24 14
-2 57 -11 95 -20 39 -8 82 -17 95 -19 14 -3 95 -22 180 -42 85 -20 162 -39
170 -40 98 -23 480 -130 533 -150 20 -8 38 -14 40 -14 3 2 179 -51 202 -61 11
-4 67 -24 125 -44 90 -30 175 -60 340 -121 197 -72 626 -254 830 -352 139 -67
408 -201 470 -235 261 -141 373 -205 580 -330 90 -55 173 -106 185 -114 36
-25 418 -279 434 -289 9 -5 34 -23 56 -39 22 -17 63 -46 90 -66 48 -35 324
-242 355 -267 710 -564 1338 -1182 1836 -1809 68 -85 152 -191 189 -241 22
-28 51 -66 65 -84 14 -17 42 -56 63 -84 l37 -53 -2527 -2526 -2527 -2526 -661
657 c-685 683 -711 709 -860 834 -178 149 -417 318 -579 408 -119 67 -163 91
-258 138 -318 157 -677 277 -1038 348 -150 30 -321 53 -465 63 -196 14 -659 6
-775 -12 -14 -3 -47 -7 -75 -11 -61 -7 -111 -15 -145 -21 -14 -2 -41 -7 -60
-10 -19 -3 -75 -15 -125 -26 -49 -11 -101 -22 -115 -24 -113 -22 -450 -133
-625 -208 -191 -80 -410 -191 -535 -270 -180 -114 -395 -264 -440 -307 -8 -8
-38 -32 -65 -54 -89 -71 -118 -97 -290 -270 -415 -416 -703 -858 -930 -1430
-11 -27 -8 -19 -65 -190 -68 -200 -146 -522 -164 -670 -2 -16 -7 -57 -11 -90
-3 -33 -9 -71 -11 -85 -11 -66 -19 -255 -19 -450 0 -247 7 -367 32 -540 3 -25
7 -52 8 -60 11 -82 33 -205 50 -280 3 -14 8 -36 11 -50 2 -14 21 -83 40 -154
288 -1046 944 -1910 1879 -2473 105 -63 110 -65 275 -148 114 -57 264 -125
274 -125 3 0 25 -9 49 -20 74 -34 367 -127 518 -164 229 -56 460 -94 699 -112
169 -14 625 -7 715 10 11 2 51 7 88 11 37 3 78 8 90 11 12 2 39 6 62 9 121 18
396 82 550 129 105 31 326 112 395 143 30 14 73 32 94 41 46 18 266 130 346
175 144 81 411 260 505 338 11 9 54 45 95 79 149 123 223 195 871 843 361 361
661 657 666 657 4 0 1144 -1136 2532 -2525 l2525 -2524 -105 -138 c-148 -196
-398 -509 -464 -579 -5 -6 -32 -37 -60 -69 -58 -68 -156 -177 -265 -296 -52
-56 -374 -380 -457 -459 -194 -185 -417 -383 -598 -531 -11 -10 -49 -41 -85
-71 -91 -76 -356 -280 -503 -386 -133 -96 -476 -332 -483 -332 -3 0 -31 -17
-62 -39 -58 -39 -349 -218 -412 -254 -19 -10 -111 -62 -205 -113 -93 -52 -177
-99 -185 -104 -29 -16 -495 -248 -555 -275 -33 -15 -82 -37 -110 -50 -69 -32
-302 -132 -325 -140 -3 -1 -16 -7 -30 -12 -14 -6 -79 -32 -145 -58 -66 -25
-129 -50 -140 -55 -66 -30 -546 -193 -745 -253 -94 -29 -450 -127 -515 -143
-428 -101 -878 -190 -1114 -219 -30 -4 -62 -8 -71 -10 -9 -2 -41 -6 -71 -10
-30 -3 -65 -8 -79 -10 -14 -2 -50 -7 -80 -10 -30 -4 -66 -8 -80 -10 -14 -2
-59 -7 -100 -10 -41 -4 -93 -9 -115 -11 -126 -14 -325 -28 -580 -40 -284 -14
-994 -7 -1210 11 -22 2 -85 6 -140 10 -55 3 -111 8 -125 10 -14 2 -63 7 -110
11 -95 8 -112 9 -190 18 -30 4 -77 9 -105 12 -27 2 -57 6 -65 9 -8 2 -42 6
-75 10 -33 3 -85 10 -115 15 -30 5 -73 12 -95 14 -22 3 -94 14 -160 26 -159
27 -163 27 -285 52 -58 11 -112 21 -120 22 -8 1 -40 8 -70 15 -30 7 -95 21
-145 32 -49 11 -119 27 -154 36 -36 8 -72 16 -80 18 -54 11 -290 76 -491 135
-475 139 -960 318 -1435 530 -135 60 -618 297 -700 343 -22 12 -80 44 -130 71
-734 400 -1455 913 -2154 1534 -315 280 -701 680 -1076 1113 -55 64 -317 393
-385 484 -41 54 -81 106 -87 115 -130 162 -475 686 -652 990 -56 96 -106 182
-111 190 -5 8 -20 35 -33 60 -14 25 -44 79 -66 120 -171 312 -394 789 -543
1160 -283 706 -525 1549 -634 2210 -3 14 -9 48 -14 75 -10 53 -16 86 -25 150
-4 22 -13 81 -20 130 -15 94 -40 290 -50 385 -3 30 -8 66 -10 80 -2 14 -6 63
-10 110 -3 47 -8 92 -10 100 -2 8 -7 65 -11 125 -4 61 -8 126 -10 145 -26 342
-25 1160 2 1505 2 33 7 89 9 125 10 124 24 274 30 320 2 19 7 64 10 100 4 36
11 93 16 128 5 35 12 84 14 110 3 26 6 56 9 67 2 11 7 45 10 75 4 30 11 78 16
105 5 28 12 66 15 85 6 39 23 132 30 170 3 13 7 42 10 65 4 22 10 56 15 75 5
19 12 55 15 79 3 23 10 54 16 67 5 14 8 28 7 32 -1 4 1 21 5 37 4 17 9 39 11
50 124 606 394 1441 673 2085 43 99 59 133 134 298 38 82 258 523 269 537 4 6
26 46 50 90 74 137 132 240 179 317 9 14 33 55 54 90 311 525 732 1107 1162
1603 209 242 301 340 550 590 203 204 277 275 410 395 547 494 1121 925 1710
1284 88 54 177 109 197 122 21 13 40 24 42 24 2 0 44 23 93 51 118 69 170 97
288 159 117 62 512 260 518 260 3 0 47 20 98 44 98 46 447 196 455 196 3 0 24
9 47 19 167 75 743 272 1064 365 160 45 549 146 627 162 12 2 30 6 41 8 11 2
38 9 60 14 22 6 54 13 70 16 17 3 100 19 185 36 167 33 172 34 240 45 25 4 54
9 65 11 11 3 40 7 65 10 25 3 52 7 60 9 8 2 38 7 65 10 28 3 60 8 73 11 12 2
44 7 70 10 26 3 58 7 72 9 14 2 52 7 85 10 33 4 72 8 87 11 36 5 100 12 193
19 41 3 83 8 92 10 10 1 68 6 128 10 61 4 126 8 145 10 19 2 96 6 170 10 74 4
136 8 138 10 6 5 957 -3 1032 -9z m-460 -9650 c84 -5 232 -28 300 -46 19 -5
40 -10 45 -11 6 -1 57 -18 115 -39 200 -71 386 -178 549 -316 47 -40 373 -360
724 -711 l638 -639 -673 -671 c-664 -663 -709 -706 -778 -753 -19 -13 -37 -27
-40 -31 -10 -13 -146 -93 -225 -132 -182 -90 -377 -149 -580 -174 -77 -10
-334 -10 -405 -1 -114 16 -130 18 -215 39 -555 131 -1022 538 -1235 1074 -31
79 -68 198 -76 250 -3 17 -9 46 -14 65 -24 95 -41 409 -26 485 2 11 7 47 11
80 27 242 127 512 272 735 251 385 682 680 1118 764 128 25 135 26 235 32 52
4 96 7 98 9 1 1 19 1 40 -1 20 -1 75 -5 122 -8z"/>
<path d="M17327 25324 c-1 -1 -72 -5 -157 -8 -85 -4 -175 -9 -200 -11 -25 -2
-76 -7 -115 -10 -151 -11 -326 -30 -430 -45 -33 -5 -82 -12 -110 -15 -27 -4
-61 -8 -75 -11 -14 -2 -68 -11 -120 -20 -148 -24 -392 -73 -530 -106 -69 -16
-132 -31 -140 -33 -198 -43 -748 -212 -930 -285 -30 -12 -62 -23 -70 -25 -20
-5 -216 -84 -375 -152 -649 -278 -1321 -670 -1870 -1090 -38 -29 -83 -63 -99
-76 -44 -33 -221 -178 -306 -250 -224 -190 -567 -521 -765 -738 -60 -66 -121
-133 -134 -147 -53 -57 -271 -323 -368 -447 -179 -230 -307 -417 -558 -810
-85 -133 -238 -411 -365 -665 -292 -583 -514 -1186 -679 -1845 -37 -152 -112
-508 -126 -605 -4 -24 -8 -47 -10 -50 -2 -3 -6 -34 -10 -70 -4 -36 -9 -67 -10
-70 -2 -3 -6 -28 -9 -55 -4 -28 -8 -60 -10 -72 -3 -12 -8 -53 -11 -90 -4 -37
-9 -70 -10 -73 -2 -3 -6 -45 -10 -93 -3 -48 -8 -95 -10 -105 -2 -10 -6 -58
-10 -108 -3 -49 -8 -109 -10 -134 -24 -242 -24 -897 1 -1230 13 -179 37 -426
49 -510 3 -19 7 -51 10 -70 9 -64 36 -244 41 -275 27 -162 68 -368 99 -503 14
-56 27 -113 29 -125 10 -56 136 -511 153 -557 3 -8 7 -19 8 -25 16 -65 199
-574 235 -650 5 -11 25 -60 45 -110 20 -49 48 -115 62 -145 13 -30 38 -86 56
-125 60 -134 227 -463 315 -621 292 -523 610 -982 1005 -1448 22 -27 46 -54
51 -60 6 -6 45 -50 86 -96 366 -415 841 -851 1315 -1207 863 -647 1871 -1146
2905 -1438 142 -40 490 -128 550 -139 14 -2 59 -11 100 -19 41 -9 91 -19 110
-22 19 -3 42 -8 50 -10 8 -2 35 -7 60 -10 25 -3 52 -8 61 -11 9 -2 34 -7 55
-9 22 -3 50 -7 64 -10 63 -12 268 -40 370 -50 30 -3 71 -8 90 -10 56 -7 129
-14 215 -20 44 -3 98 -7 120 -10 22 -2 130 -7 240 -11 421 -14 804 -4 1185 31
19 2 67 6 105 9 39 4 81 9 95 11 14 2 43 7 65 9 100 13 212 28 238 32 15 2 42
6 60 9 17 3 45 8 60 11 16 3 38 7 50 8 18 3 100 17 117 21 3 1 30 5 60 10 30
5 57 9 60 10 3 1 23 5 45 10 22 5 42 10 45 10 3 1 23 5 45 9 22 5 112 26 200
47 88 22 168 42 178 44 10 2 52 14 95 25 42 12 82 23 87 24 107 26 466 144
695 229 431 161 842 353 1270 595 63 36 138 79 165 96 28 18 57 35 65 38 8 4
60 36 115 73 55 36 108 68 118 71 9 4 17 10 17 15 0 5 4 9 9 9 11 0 273 181
401 276 47 35 96 71 110 81 37 27 330 263 370 298 19 16 54 48 77 70 l44 40
-839 838 -839 839 -84 -69 c-192 -158 -509 -383 -708 -503 -40 -25 -90 -55
-110 -67 -20 -13 -42 -26 -50 -30 -8 -3 -56 -30 -105 -58 -137 -77 -452 -231
-596 -290 -36 -15 -76 -32 -90 -38 -14 -6 -27 -11 -30 -12 -3 -1 -18 -7 -35
-14 -96 -41 -364 -134 -475 -166 -8 -3 -53 -16 -100 -30 -175 -53 -499 -130
-655 -155 -33 -5 -70 -12 -81 -14 -52 -10 -203 -32 -285 -42 -30 -3 -65 -7
-79 -10 -14 -2 -61 -6 -105 -10 -44 -3 -91 -7 -105 -10 -128 -22 -906 -22
-1040 0 -14 3 -63 7 -108 11 -79 6 -108 9 -192 20 -122 16 -137 18 -210 30
-19 3 -48 8 -65 11 -28 4 -111 19 -172 30 -67 12 -265 57 -353 79 -794 203
-1534 549 -2210 1034 -410 293 -859 708 -1170 1080 -25 29 -50 59 -55 65 -13
14 -136 171 -202 256 -53 70 -244 346 -269 389 -8 14 -39 64 -69 111 -31 47
-58 92 -62 100 -4 8 -23 42 -42 75 -153 262 -330 639 -443 945 -27 74 -52 142
-55 150 -4 8 -7 17 -8 20 -1 3 -14 43 -29 90 -29 88 -35 106 -84 280 -73 258
-158 662 -177 845 -2 28 -7 61 -10 75 -3 14 -7 50 -10 80 -4 52 -11 120 -20
200 -26 231 -26 823 0 1110 2 25 6 78 10 119 4 41 8 81 10 90 1 9 6 45 10 81
3 36 8 72 10 80 2 8 7 35 10 60 12 88 32 210 45 270 5 25 12 57 15 73 65 349
254 952 395 1262 15 33 38 85 51 115 44 104 209 427 283 555 249 427 499 772
831 1145 120 135 481 485 605 586 19 16 40 33 46 39 6 5 30 26 54 45 24 19 58
47 75 61 24 20 165 128 210 161 5 4 24 18 40 31 123 94 461 308 680 429 82 46
443 223 535 263 329 143 685 264 1025 349 138 34 462 101 540 111 22 3 51 7
65 9 46 8 174 26 220 31 25 2 72 7 105 10 33 3 76 8 95 10 226 26 969 26 1131
0 13 -2 56 -6 94 -9 39 -4 84 -8 100 -10 121 -15 151 -18 165 -21 19 -3 109
-17 135 -20 19 -3 112 -19 165 -30 14 -3 41 -8 60 -11 95 -17 334 -74 490
-118 821 -229 1643 -650 2305 -1182 66 -53 125 -98 131 -101 6 -2 387 373 848
833 664 665 834 840 824 849 -14 13 -221 187 -253 214 -155 126 -442 341 -455
341 -4 0 -10 4 -12 9 -4 12 -373 259 -508 340 -183 109 -203 121 -275 161
-414 230 -800 411 -1235 577 -63 24 -119 45 -125 47 -5 2 -17 6 -25 9 -234 91
-906 278 -1190 332 -14 2 -95 17 -180 34 -85 16 -173 31 -195 34 -76 11 -190
28 -215 32 -48 7 -105 15 -155 20 -27 3 -68 7 -90 10 -75 8 -140 14 -215 20
-41 3 -95 8 -120 10 -131 13 -893 29 -903 19z"/>
</g>
</svg>
